<svg xmlns="http://www.w3.org/2000/svg" version="1.1" xmlns:xlink="http://www.w3.org/1999/xlink" xmlns:svgjs="http://svgjs.dev/svgjs" width="1440" height="560" preserveAspectRatio="none" viewBox="0 0 1440 560"><g mask="url(&quot;#SvgjsMask1469&quot;)" fill="none"><rect width="1440" height="560" x="0" y="0" fill="rgba(0, 0, 0, 1)"></rect><path d="M459 367L458 703" stroke-width="6" stroke="url(&quot;#SvgjsLinearGradient1470&quot;)" stroke-linecap="round" class="Down"></path><path d="M1068 302L1067 672" stroke-width="6" stroke="url(&quot;#SvgjsLinearGradient1470&quot;)" stroke-linecap="round" class="Down"></path><path d="M486 380L485 543" stroke-width="6" stroke="url(&quot;#SvgjsLinearGradient1471&quot;)" stroke-linecap="round" class="Up"></path><path d="M1154 12L1153 -321" stroke-width="10" stroke="url(&quot;#SvgjsLinearGradient1471&quot;)" stroke-linecap="round" class="Up"></path><path d="M1378 483L1377 88" stroke-width="10" stroke="url(&quot;#SvgjsLinearGradient1470&quot;)" stroke-linecap="round" class="Down"></path><path d="M1300 343L1299 101" stroke-width="10" stroke="url(&quot;#SvgjsLinearGradient1471&quot;)" stroke-linecap="round" class="Up"></path><path d="M1158 309L1157 131" stroke-width="6" stroke="url(&quot;#SvgjsLinearGradient1471&quot;)" stroke-linecap="round" class="Up"></path><path d="M247 123L246 -235" stroke-width="10" stroke="url(&quot;#SvgjsLinearGradient1471&quot;)" stroke-linecap="round" class="Up"></path><path d="M1203 20L1202 -208" stroke-width="10" stroke="url(&quot;#SvgjsLinearGradient1471&quot;)" stroke-linecap="round" class="Up"></path><path d="M64 234L63 482" stroke-width="6" stroke="url(&quot;#SvgjsLinearGradient1470&quot;)" stroke-linecap="round" class="Down"></path><path d="M133 458L132 219" stroke-width="10" stroke="url(&quot;#SvgjsLinearGradient1471&quot;)" stroke-linecap="round" class="Up"></path><path d="M1055 53L1054 -100" stroke-width="6" stroke="url(&quot;#SvgjsLinearGradient1471&quot;)" stroke-linecap="round" class="Up"></path><path d="M838 520L837 353" stroke-width="6" stroke="url(&quot;#SvgjsLinearGradient1471&quot;)" stroke-linecap="round" class="Up"></path><path d="M393 441L392 624" stroke-width="10" stroke="url(&quot;#SvgjsLinearGradient1471&quot;)" stroke-linecap="round" class="Up"></path><path d="M645 460L644 603" stroke-width="6" stroke="url(&quot;#SvgjsLinearGradient1470&quot;)" stroke-linecap="round" class="Down"></path><path d="M1360 89L1359 -324" stroke-width="10" stroke="url(&quot;#SvgjsLinearGradient1470&quot;)" stroke-linecap="round" class="Down"></path><path d="M773 277L772 561" stroke-width="10" stroke="url(&quot;#SvgjsLinearGradient1470&quot;)" stroke-linecap="round" class="Down"></path><path d="M430 72L429 282" stroke-width="8" stroke="url(&quot;#SvgjsLinearGradient1471&quot;)" stroke-linecap="round" class="Up"></path><path d="M833 440L832 138" stroke-width="10" stroke="url(&quot;#SvgjsLinearGradient1470&quot;)" stroke-linecap="round" class="Down"></path><path d="M26 353L25 548" stroke-width="6" stroke="url(&quot;#SvgjsLinearGradient1470&quot;)" stroke-linecap="round" class="Down"></path><path d="M921 35L920 407" stroke-width="10" stroke="url(&quot;#SvgjsLinearGradient1471&quot;)" stroke-linecap="round" class="Up"></path><path d="M600 439L599 719" stroke-width="10" stroke="url(&quot;#SvgjsLinearGradient1470&quot;)" stroke-linecap="round" class="Down"></path><path d="M166 555L165 818" stroke-width="6" stroke="url(&quot;#SvgjsLinearGradient1471&quot;)" stroke-linecap="round" class="Up"></path><path d="M745 554L744 791" stroke-width="10" stroke="url(&quot;#SvgjsLinearGradient1471&quot;)" stroke-linecap="round" class="Up"></path><path d="M717 98L716 413" stroke-width="10" stroke="url(&quot;#SvgjsLinearGradient1470&quot;)" stroke-linecap="round" class="Down"></path><path d="M843 533L842 711" stroke-width="10" stroke="url(&quot;#SvgjsLinearGradient1471&quot;)" stroke-linecap="round" class="Up"></path><path d="M1367 158L1366 -250" stroke-width="6" stroke="url(&quot;#SvgjsLinearGradient1470&quot;)" stroke-linecap="round" class="Down"></path><path d="M1377 30L1376 183" stroke-width="10" stroke="url(&quot;#SvgjsLinearGradient1471&quot;)" stroke-linecap="round" class="Up"></path><path d="M1148 493L1147 299" stroke-width="8" stroke="url(&quot;#SvgjsLinearGradient1470&quot;)" stroke-linecap="round" class="Down"></path><path d="M623 335L622 497" stroke-width="10" stroke="url(&quot;#SvgjsLinearGradient1471&quot;)" stroke-linecap="round" class="Up"></path><path d="M880 23L879 -191" stroke-width="6" stroke="url(&quot;#SvgjsLinearGradient1470&quot;)" stroke-linecap="round" class="Down"></path><path d="M437 139L436 471" stroke-width="10" stroke="url(&quot;#SvgjsLinearGradient1471&quot;)" stroke-linecap="round" class="Up"></path><path d="M1083 267L1082 421" stroke-width="10" stroke="url(&quot;#SvgjsLinearGradient1470&quot;)" stroke-linecap="round" class="Down"></path><path d="M741 178L740 339" stroke-width="6" stroke="url(&quot;#SvgjsLinearGradient1470&quot;)" stroke-linecap="round" class="Down"></path><path d="M328 81L327 280" stroke-width="8" stroke="url(&quot;#SvgjsLinearGradient1470&quot;)" stroke-linecap="round" class="Down"></path><path d="M585 130L584 -142" stroke-width="10" stroke="url(&quot;#SvgjsLinearGradient1470&quot;)" stroke-linecap="round" class="Down"></path></g><defs><mask id="SvgjsMask1469"><rect width="1440" height="560" fill="#ffffff"></rect></mask><linearGradient x1="0%" y1="0%" x2="0%" y2="100%" id="SvgjsLinearGradient1470"><stop stop-color="rgba(230, 217, 217, 0)" offset="0"></stop><stop stop-color="rgba(230, 217, 217, 1)" offset="1"></stop></linearGradient><linearGradient x1="0%" y1="100%" x2="0%" y2="0%" id="SvgjsLinearGradient1471"><stop stop-color="rgba(230, 217, 217, 0)" offset="0"></stop><stop stop-color="rgba(230, 217, 217, 1)" offset="1"></stop></linearGradient></defs></svg>