<?xml version="1.0" standalone="no"?>
<!DOCTYPE svg PUBLIC "-//W3C//DTD SVG 20010904//EN"
 "http://www.w3.org/TR/2001/REC-SVG-20010904/DTD/svg10.dtd">
<svg version="1.0" xmlns="http://www.w3.org/2000/svg"
 width="583.000000pt" height="584.000000pt" viewBox="0 0 583.000000 584.000000"
 preserveAspectRatio="xMidYMid meet">

<g transform="translate(0.000000,584.000000) scale(0.100000,-0.100000)"
fill="#000000" stroke="none">
<path d="M4503 3710 c0 -41 2 -58 4 -37 2 20 2 54 0 75 -2 20 -4 3 -4 -38z"/>
<path d="M4502 3500 c0 -14 2 -19 5 -12 2 6 2 18 0 25 -3 6 -5 1 -5 -13z"/>
<path d="M4502 3420 c0 -14 2 -19 5 -12 2 6 2 18 0 25 -3 6 -5 1 -5 -13z"/>
<path d="M3643 3365 c0 -27 2 -38 4 -22 2 15 2 37 0 50 -2 12 -4 0 -4 -28z"/>
<path d="M3643 2605 c0 -44 2 -61 4 -37 2 23 2 59 0 80 -2 20 -4 1 -4 -43z"/>
<path d="M3638 2298 c-3 -202 -3 -203 -31 -251 -15 -26 -47 -60 -69 -75 l-42
-27 -1155 -5 c-1089 -5 -1154 -6 -1121 -22 35 -16 70 -24 143 -32 82 -9 637
-17 1377 -20 842 -3 813 -5 873 52 54 51 76 129 77 267 0 93 27 184 50 170 6
-4 25 -11 43 -16 28 -8 22 0 -53 76 -47 47 -85 85 -87 85 -1 0 -3 -91 -5 -202z"/>
<path d="M4471 2006 c-7 -13 -27 -35 -45 -47 -26 -20 -43 -24 -108 -24 -42 0
-74 -3 -72 -7 3 -4 34 -16 69 -27 105 -33 155 -7 170 87 8 48 4 53 -14 18z"/>
<path d="M5316 1263 c-4 -15 -9 -36 -12 -45 -4 -13 0 -18 13 -18 15 0 16 2 3
10 -12 8 -12 10 4 16 14 5 15 9 4 15 -10 7 -10 11 -1 17 7 4 9 13 4 21 -6 9
-10 5 -15 -16z"/>
<path d="M5258 1112 c-54 -113 -132 -224 -226 -324 -180 -189 -384 -307 -642
-371 -84 -21 -98 -21 -1520 -25 -1488 -3 -1651 0 -1805 37 -44 11 -81 18 -83
17 -4 -5 80 -33 153 -51 39 -10 88 -24 110 -31 22 -8 90 -21 150 -29 61 -8
139 -19 175 -24 57 -9 259 -30 300 -31 8 0 143 0 300 0 157 0 339 -3 405 -6
162 -9 472 -7 486 2 7 4 9 3 6 -3 -4 -6 8 -8 33 -6 22 2 49 -1 60 -7 11 -6 20
-7 20 -2 0 11 534 7 551 -4 7 -4 9 -3 6 4 -8 12 134 9 154 -4 8 -4 9 -3 5 5
-6 9 29 10 144 7 84 -3 169 -8 189 -11 29 -4 31 -3 11 4 -22 8 -20 9 17 10 23
1 43 5 45 11 3 9 23 13 143 26 33 4 66 11 73 17 7 5 23 11 36 12 38 5 67 16
61 24 -2 5 7 6 20 3 18 -3 25 0 25 12 0 10 9 16 24 16 25 0 128 50 157 76 8 8
20 14 25 14 6 0 29 18 52 40 22 22 45 40 49 40 4 0 22 17 38 37 17 20 45 53
63 73 17 21 32 42 32 48 0 6 9 16 20 22 11 6 20 17 20 25 0 8 4 15 9 15 11 0
108 195 117 235 4 17 13 37 20 46 7 8 13 31 12 50 0 18 2 44 6 57 16 50 -11
17 -46 -56z m-3485 -809 c-7 -2 -19 -2 -25 0 -7 3 -2 5 12 5 14 0 19 -2 13 -5z"/>
</g>
</svg>
